<svg width="435" height="125" viewBox="0 0 435 125" fill="none" xmlns="http://www.w3.org/2000/svg">
<path d="M11.399 114.158C10.2403 114.158 9.24493 113.926 8.4128 113.463C7.5912 112.989 6.9592 112.325 6.5168 111.472C6.0744 110.608 5.8532 109.592 5.8532 108.423C5.8532 107.548 5.9796 106.764 6.2324 106.068C6.4852 105.363 6.8486 104.762 7.3226 104.267C7.7966 103.762 8.37593 103.377 9.0606 103.114C9.7558 102.84 10.5353 102.703 11.399 102.703C11.9783 102.703 12.5471 102.777 13.1054 102.924C13.6637 103.072 14.1535 103.282 14.5748 103.556C14.796 103.693 14.9435 103.862 15.0172 104.062C15.0909 104.251 15.1067 104.441 15.0646 104.631C15.0225 104.81 14.9329 104.962 14.796 105.089C14.6696 105.215 14.5063 105.289 14.3062 105.31C14.1166 105.321 13.9059 105.252 13.6742 105.105C13.3477 104.894 12.9948 104.741 12.6156 104.646C12.2364 104.552 11.8519 104.504 11.4622 104.504C10.7143 104.504 10.0823 104.657 9.5662 104.962C9.05007 105.268 8.66033 105.71 8.397 106.29C8.13367 106.869 8.002 107.58 8.002 108.423C8.002 109.255 8.13367 109.966 8.397 110.556C8.66033 111.145 9.05007 111.593 9.5662 111.899C10.0823 112.204 10.7143 112.357 11.4622 112.357C11.8625 112.357 12.2575 112.309 12.6472 112.215C13.0369 112.109 13.4056 111.951 13.7532 111.741C13.9849 111.604 14.1903 111.546 14.3694 111.567C14.559 111.577 14.717 111.641 14.8434 111.756C14.9698 111.872 15.0541 112.02 15.0962 112.199C15.1383 112.367 15.1278 112.546 15.0646 112.736C15.0014 112.915 14.875 113.073 14.6854 113.21C14.2641 113.515 13.7585 113.752 13.1686 113.921C12.5893 114.079 11.9994 114.158 11.399 114.158ZM20.0184 114.158C19.1441 114.158 18.391 113.995 17.759 113.668C17.127 113.342 16.6372 112.878 16.2896 112.278C15.9525 111.677 15.784 110.966 15.784 110.145C15.784 109.344 15.9473 108.644 16.2738 108.043C16.6109 107.443 17.0691 106.974 17.6484 106.637C18.2383 106.29 18.9071 106.116 19.655 106.116C20.2027 106.116 20.6925 106.205 21.1244 106.384C21.5668 106.563 21.9407 106.822 22.2462 107.159C22.5622 107.496 22.7992 107.906 22.9572 108.391C23.1257 108.865 23.21 109.402 23.21 110.003C23.21 110.192 23.1415 110.34 23.0046 110.445C22.8782 110.54 22.6939 110.587 22.4516 110.587H17.3798V109.45H21.8196L21.5668 109.687C21.5668 109.202 21.4931 108.797 21.3456 108.47C21.2087 108.143 21.0033 107.896 20.7294 107.727C20.4661 107.548 20.1343 107.459 19.734 107.459C19.2916 107.459 18.9124 107.564 18.5964 107.775C18.2909 107.975 18.0539 108.265 17.8854 108.644C17.7274 109.012 17.6484 109.455 17.6484 109.971V110.082C17.6484 110.945 17.8485 111.593 18.2488 112.025C18.6596 112.446 19.26 112.657 20.05 112.657C20.3239 112.657 20.6293 112.625 20.9664 112.562C21.314 112.488 21.6405 112.367 21.946 112.199C22.1672 112.072 22.3621 112.02 22.5306 112.041C22.6991 112.051 22.8308 112.109 22.9256 112.215C23.0309 112.32 23.0941 112.452 23.1152 112.61C23.1363 112.757 23.1047 112.91 23.0204 113.068C22.9467 113.226 22.815 113.363 22.6254 113.479C22.2567 113.71 21.8301 113.884 21.3456 114C20.8716 114.105 20.4292 114.158 20.0184 114.158ZM25.7537 114.126C25.4377 114.126 25.1954 114.042 25.0269 113.874C24.8583 113.695 24.7741 113.442 24.7741 113.115V107.143C24.7741 106.816 24.8583 106.569 25.0269 106.4C25.1954 106.232 25.4324 106.147 25.7379 106.147C26.0433 106.147 26.2803 106.232 26.4489 106.4C26.6174 106.569 26.7017 106.816 26.7017 107.143V108.217L26.5279 107.822C26.7596 107.264 27.1177 106.843 27.6023 106.558C28.0973 106.263 28.6556 106.116 29.2771 106.116C29.8985 106.116 30.4094 106.232 30.8097 106.463C31.2099 106.695 31.5101 107.048 31.7103 107.522C31.9104 107.985 32.0105 108.575 32.0105 109.292V113.115C32.0105 113.442 31.9262 113.695 31.7577 113.874C31.5891 114.042 31.3469 114.126 31.0309 114.126C30.7149 114.126 30.4673 114.042 30.2883 113.874C30.1197 113.695 30.0355 113.442 30.0355 113.115V109.386C30.0355 108.786 29.9196 108.349 29.6879 108.075C29.4667 107.801 29.1191 107.664 28.6451 107.664C28.0657 107.664 27.6023 107.849 27.2547 108.217C26.9176 108.575 26.7491 109.055 26.7491 109.655V113.115C26.7491 113.789 26.4173 114.126 25.7537 114.126ZM37.5557 114.158C36.871 114.158 36.2969 114.042 35.8335 113.81C35.3805 113.579 35.0435 113.242 34.8223 112.799C34.6011 112.346 34.4905 111.788 34.4905 111.124V107.759H33.6689C33.4161 107.759 33.2212 107.696 33.0843 107.569C32.9473 107.432 32.8789 107.248 32.8789 107.016C32.8789 106.774 32.9473 106.59 33.0843 106.463C33.2212 106.337 33.4161 106.274 33.6689 106.274H34.4905V104.836C34.4905 104.509 34.5747 104.262 34.7433 104.093C34.9223 103.925 35.1699 103.841 35.4859 103.841C35.8019 103.841 36.0441 103.925 36.2127 104.093C36.3812 104.262 36.4655 104.509 36.4655 104.836V106.274H38.1403C38.3931 106.274 38.5879 106.337 38.7249 106.463C38.8618 106.59 38.9303 106.774 38.9303 107.016C38.9303 107.248 38.8618 107.432 38.7249 107.569C38.5879 107.696 38.3931 107.759 38.1403 107.759H36.4655V111.014C36.4655 111.519 36.5761 111.899 36.7973 112.151C37.0185 112.404 37.3766 112.531 37.8717 112.531C38.0507 112.531 38.2087 112.515 38.3457 112.483C38.4826 112.452 38.6037 112.431 38.7091 112.42C38.8355 112.409 38.9408 112.452 39.0251 112.546C39.1093 112.631 39.1515 112.81 39.1515 113.084C39.1515 113.294 39.1146 113.484 39.0409 113.652C38.9777 113.81 38.8565 113.921 38.6775 113.984C38.5405 114.026 38.3615 114.063 38.1403 114.095C37.9191 114.137 37.7242 114.158 37.5557 114.158ZM41.0915 114.126C40.765 114.126 40.5122 114.042 40.3331 113.874C40.1646 113.695 40.0803 113.442 40.0803 113.115V107.143C40.0803 106.816 40.1646 106.569 40.3331 106.4C40.5017 106.232 40.7387 106.147 41.0441 106.147C41.3496 106.147 41.5866 106.232 41.7551 106.4C41.9237 106.569 42.0079 106.816 42.0079 107.143V108.138H41.8499C41.9974 107.506 42.2871 107.027 42.7189 106.7C43.1508 106.374 43.7249 106.179 44.4411 106.116C44.6623 106.095 44.8361 106.153 44.9625 106.29C45.0995 106.416 45.1785 106.616 45.1995 106.89C45.2206 107.153 45.1574 107.369 45.0099 107.538C44.873 107.696 44.6623 107.791 44.3779 107.822L44.0303 107.854C43.3878 107.917 42.9033 108.117 42.5767 108.454C42.2502 108.781 42.0869 109.244 42.0869 109.845V113.115C42.0869 113.442 42.0027 113.695 41.8341 113.874C41.6656 114.042 41.4181 114.126 41.0915 114.126ZM49.6676 114.158C48.8671 114.158 48.1719 113.995 47.582 113.668C46.9921 113.342 46.5339 112.878 46.2074 112.278C45.8809 111.667 45.7176 110.951 45.7176 110.129C45.7176 109.508 45.8071 108.955 45.9862 108.47C46.1758 107.975 46.4444 107.554 46.792 107.206C47.1396 106.848 47.5557 106.579 48.0402 106.4C48.5247 106.211 49.0672 106.116 49.6676 106.116C50.4681 106.116 51.1633 106.279 51.7532 106.606C52.3431 106.932 52.8013 107.396 53.1278 107.996C53.4543 108.596 53.6176 109.307 53.6176 110.129C53.6176 110.75 53.5228 111.309 53.3332 111.804C53.1541 112.299 52.8908 112.725 52.5432 113.084C52.1956 113.431 51.7795 113.7 51.295 113.889C50.8105 114.068 50.268 114.158 49.6676 114.158ZM49.6676 112.657C50.0573 112.657 50.3997 112.562 50.6946 112.373C50.9895 112.183 51.216 111.904 51.374 111.535C51.5425 111.156 51.6268 110.687 51.6268 110.129C51.6268 109.286 51.4477 108.66 51.0896 108.249C50.7315 107.827 50.2575 107.617 49.6676 107.617C49.2779 107.617 48.9355 107.712 48.6406 107.901C48.3457 108.08 48.1139 108.359 47.9454 108.739C47.7874 109.107 47.7084 109.571 47.7084 110.129C47.7084 110.961 47.8875 111.593 48.2456 112.025C48.6037 112.446 49.0777 112.657 49.6676 112.657ZM64.9092 114.158C63.7505 114.158 62.7551 113.926 61.923 113.463C61.1014 112.989 60.4694 112.325 60.027 111.472C59.5846 110.608 59.3634 109.592 59.3634 108.423C59.3634 107.548 59.4898 106.764 59.7426 106.068C59.9954 105.363 60.3588 104.762 60.8328 104.267C61.3068 103.762 61.8861 103.377 62.5708 103.114C63.266 102.84 64.0454 102.703 64.9092 102.703C65.4885 102.703 66.0573 102.777 66.6156 102.924C67.1738 103.072 67.6636 103.282 68.085 103.556C68.3062 103.693 68.4536 103.862 68.5274 104.062C68.6011 104.251 68.6169 104.441 68.5748 104.631C68.5326 104.81 68.4431 104.962 68.3062 105.089C68.1798 105.215 68.0165 105.289 67.8164 105.31C67.6268 105.321 67.4161 105.252 67.1844 105.105C66.8578 104.894 66.505 104.741 66.1258 104.646C65.7466 104.552 65.3621 104.504 64.9724 104.504C64.2245 104.504 63.5925 104.657 63.0764 104.962C62.5602 105.268 62.1705 105.71 61.9072 106.29C61.6438 106.869 61.5122 107.58 61.5122 108.423C61.5122 109.255 61.6438 109.966 61.9072 110.556C62.1705 111.145 62.5602 111.593 63.0764 111.899C63.5925 112.204 64.2245 112.357 64.9724 112.357C65.3726 112.357 65.7676 112.309 66.1574 112.215C66.5471 112.109 66.9158 111.951 67.2634 111.741C67.4951 111.604 67.7005 111.546 67.8796 111.567C68.0692 111.577 68.2272 111.641 68.3536 111.756C68.48 111.872 68.5642 112.02 68.6064 112.199C68.6485 112.367 68.638 112.546 68.5748 112.736C68.5116 112.915 68.3852 113.073 68.1956 113.21C67.7742 113.515 67.2686 113.752 66.6788 113.921C66.0994 114.079 65.5096 114.158 64.9092 114.158ZM71.2874 114.126C70.9609 114.126 70.7081 114.042 70.529 113.874C70.3605 113.695 70.2762 113.442 70.2762 113.115V107.143C70.2762 106.816 70.3605 106.569 70.529 106.4C70.6976 106.232 70.9346 106.147 71.24 106.147C71.5455 106.147 71.7825 106.232 71.951 106.4C72.1196 106.569 72.2038 106.816 72.2038 107.143V108.138H72.0458C72.1933 107.506 72.483 107.027 72.9148 106.7C73.3467 106.374 73.9208 106.179 74.637 106.116C74.8582 106.095 75.032 106.153 75.1584 106.29C75.2954 106.416 75.3744 106.616 75.3954 106.89C75.4165 107.153 75.3533 107.369 75.2058 107.538C75.0689 107.696 74.8582 107.791 74.5738 107.822L74.2262 107.854C73.5837 107.917 73.0992 108.117 72.7726 108.454C72.4461 108.781 72.2828 109.244 72.2828 109.845V113.115C72.2828 113.442 72.1986 113.695 72.03 113.874C71.8615 114.042 71.614 114.126 71.2874 114.126ZM77.4431 114.111C77.1271 114.111 76.8849 114.016 76.7163 113.826C76.5478 113.637 76.4635 113.373 76.4635 113.036V107.238C76.4635 106.89 76.5478 106.627 76.7163 106.448C76.8849 106.258 77.1271 106.163 77.4431 106.163C77.7591 106.163 78.0014 106.258 78.1699 106.448C78.349 106.627 78.4385 106.89 78.4385 107.238V113.036C78.4385 113.373 78.3543 113.637 78.1857 113.826C78.0172 114.016 77.7697 114.111 77.4431 114.111ZM77.4431 104.694C77.0745 104.694 76.7848 104.604 76.5741 104.425C76.374 104.236 76.2739 103.978 76.2739 103.651C76.2739 103.314 76.374 103.056 76.5741 102.877C76.7848 102.698 77.0745 102.608 77.4431 102.608C77.8223 102.608 78.112 102.698 78.3121 102.877C78.5123 103.056 78.6123 103.314 78.6123 103.651C78.6123 103.978 78.5123 104.236 78.3121 104.425C78.112 104.604 77.8223 104.694 77.4431 104.694ZM83.3189 114.158C82.8659 114.158 82.3867 114.111 81.8811 114.016C81.3755 113.921 80.9225 113.758 80.5223 113.526C80.3537 113.421 80.2326 113.3 80.1589 113.163C80.0957 113.015 80.0693 112.873 80.0799 112.736C80.1009 112.589 80.1536 112.462 80.2379 112.357C80.3327 112.251 80.4485 112.183 80.5855 112.151C80.7329 112.12 80.8909 112.146 81.0595 112.23C81.4808 112.431 81.8758 112.573 82.2445 112.657C82.6131 112.731 82.9765 112.768 83.3347 112.768C83.8403 112.768 84.2142 112.683 84.4565 112.515C84.7093 112.336 84.8357 112.104 84.8357 111.82C84.8357 111.577 84.7514 111.393 84.5829 111.267C84.4249 111.13 84.1826 111.03 83.8561 110.966L82.2761 110.666C81.623 110.54 81.1227 110.303 80.7751 109.955C80.438 109.597 80.2695 109.139 80.2695 108.581C80.2695 108.075 80.4064 107.638 80.6803 107.269C80.9647 106.901 81.3544 106.616 81.8495 106.416C82.3445 106.216 82.9133 106.116 83.5559 106.116C84.0193 106.116 84.4512 106.168 84.8515 106.274C85.2623 106.369 85.6573 106.521 86.0365 106.732C86.1945 106.816 86.2998 106.927 86.3525 107.064C86.4157 107.201 86.4315 107.343 86.3999 107.49C86.3683 107.627 86.3051 107.754 86.2103 107.87C86.1155 107.975 85.9943 108.043 85.8469 108.075C85.7099 108.096 85.5519 108.064 85.3729 107.98C85.0463 107.812 84.7303 107.691 84.4249 107.617C84.1299 107.543 83.8455 107.506 83.5717 107.506C83.0555 107.506 82.6711 107.596 82.4183 107.775C82.176 107.954 82.0549 108.191 82.0549 108.486C82.0549 108.707 82.1286 108.891 82.2761 109.039C82.4235 109.186 82.65 109.286 82.9555 109.339L84.5355 109.639C85.2201 109.766 85.7363 109.997 86.0839 110.334C86.442 110.671 86.6211 111.124 86.6211 111.693C86.6211 112.462 86.3209 113.068 85.7205 113.51C85.1201 113.942 84.3195 114.158 83.3189 114.158ZM91.6676 114.158C90.9829 114.158 90.4088 114.042 89.9454 113.81C89.4924 113.579 89.1554 113.242 88.9342 112.799C88.713 112.346 88.6024 111.788 88.6024 111.124V107.759H87.7808C87.528 107.759 87.3331 107.696 87.1962 107.569C87.0592 107.432 86.9908 107.248 86.9908 107.016C86.9908 106.774 87.0592 106.59 87.1962 106.463C87.3331 106.337 87.528 106.274 87.7808 106.274H88.6024V104.836C88.6024 104.509 88.6866 104.262 88.8552 104.093C89.0342 103.925 89.2818 103.841 89.5978 103.841C89.9138 103.841 90.156 103.925 90.3246 104.093C90.4931 104.262 90.5774 104.509 90.5774 104.836V106.274H92.2522C92.505 106.274 92.6998 106.337 92.8368 106.463C92.9737 106.59 93.0422 106.774 93.0422 107.016C93.0422 107.248 92.9737 107.432 92.8368 107.569C92.6998 107.696 92.505 107.759 92.2522 107.759H90.5774V111.014C90.5774 111.519 90.688 111.899 90.9092 112.151C91.1304 112.404 91.4885 112.531 91.9836 112.531C92.1626 112.531 92.3206 112.515 92.4576 112.483C92.5945 112.452 92.7156 112.431 92.821 112.42C92.9474 112.409 93.0527 112.452 93.137 112.546C93.2212 112.631 93.2634 112.81 93.2634 113.084C93.2634 113.294 93.2265 113.484 93.1528 113.652C93.0896 113.81 92.9684 113.921 92.7894 113.984C92.6524 114.026 92.4734 114.063 92.2522 114.095C92.031 114.137 91.8361 114.158 91.6676 114.158ZM95.3724 114.111C95.0564 114.111 94.8142 114.016 94.6456 113.826C94.4771 113.637 94.3928 113.373 94.3928 113.036V107.238C94.3928 106.89 94.4771 106.627 94.6456 106.448C94.8142 106.258 95.0564 106.163 95.3724 106.163C95.6884 106.163 95.9307 106.258 96.0992 106.448C96.2783 106.627 96.3678 106.89 96.3678 107.238V113.036C96.3678 113.373 96.2836 113.637 96.115 113.826C95.9465 114.016 95.699 114.111 95.3724 114.111ZM95.3724 104.694C95.0038 104.694 94.7141 104.604 94.5034 104.425C94.3033 104.236 94.2032 103.978 94.2032 103.651C94.2032 103.314 94.3033 103.056 94.5034 102.877C94.7141 102.698 95.0038 102.608 95.3724 102.608C95.7516 102.608 96.0413 102.698 96.2414 102.877C96.4416 103.056 96.5416 103.314 96.5416 103.651C96.5416 103.978 96.4416 104.236 96.2414 104.425C96.0413 104.604 95.7516 104.694 95.3724 104.694ZM100.964 114.158C100.406 114.158 99.9052 114.053 99.4628 113.842C99.0309 113.621 98.6886 113.326 98.4358 112.957C98.1935 112.589 98.0724 112.172 98.0724 111.709C98.0724 111.14 98.2198 110.693 98.5148 110.366C98.8097 110.029 99.289 109.787 99.9526 109.639C100.616 109.492 101.506 109.418 102.623 109.418H103.413V110.556H102.639C101.986 110.556 101.464 110.587 101.074 110.65C100.685 110.714 100.406 110.824 100.237 110.982C100.079 111.13 100 111.34 100 111.614C100 111.962 100.121 112.246 100.363 112.467C100.606 112.689 100.943 112.799 101.375 112.799C101.722 112.799 102.028 112.72 102.291 112.562C102.565 112.394 102.781 112.167 102.939 111.883C103.097 111.598 103.176 111.272 103.176 110.903V109.086C103.176 108.56 103.06 108.18 102.828 107.949C102.596 107.717 102.207 107.601 101.659 107.601C101.354 107.601 101.022 107.638 100.664 107.712C100.316 107.785 99.9473 107.912 99.5576 108.091C99.3574 108.186 99.1784 108.212 99.0204 108.17C98.8729 108.128 98.757 108.043 98.6728 107.917C98.5885 107.78 98.5464 107.633 98.5464 107.475C98.5464 107.317 98.5885 107.164 98.6728 107.016C98.757 106.858 98.8992 106.743 99.0994 106.669C99.5839 106.469 100.047 106.326 100.49 106.242C100.943 106.158 101.354 106.116 101.722 106.116C102.481 106.116 103.102 106.232 103.587 106.463C104.082 106.695 104.45 107.048 104.693 107.522C104.935 107.985 105.056 108.586 105.056 109.323V113.115C105.056 113.442 104.977 113.695 104.819 113.874C104.661 114.042 104.435 114.126 104.14 114.126C103.845 114.126 103.613 114.042 103.444 113.874C103.286 113.695 103.207 113.442 103.207 113.115V112.357H103.334C103.26 112.725 103.113 113.047 102.891 113.321C102.681 113.584 102.412 113.789 102.086 113.937C101.759 114.084 101.385 114.158 100.964 114.158ZM108.04 114.126C107.724 114.126 107.482 114.042 107.313 113.874C107.145 113.695 107.061 113.442 107.061 113.115V107.143C107.061 106.816 107.145 106.569 107.313 106.4C107.482 106.232 107.719 106.147 108.024 106.147C108.33 106.147 108.567 106.232 108.735 106.4C108.904 106.569 108.988 106.816 108.988 107.143V108.217L108.814 107.822C109.046 107.264 109.404 106.843 109.889 106.558C110.384 106.263 110.942 106.116 111.564 106.116C112.185 106.116 112.696 106.232 113.096 106.463C113.496 106.695 113.797 107.048 113.997 107.522C114.197 107.985 114.297 108.575 114.297 109.292V113.115C114.297 113.442 114.213 113.695 114.044 113.874C113.876 114.042 113.633 114.126 113.317 114.126C113.001 114.126 112.754 114.042 112.575 113.874C112.406 113.695 112.322 113.442 112.322 113.115V109.386C112.322 108.786 112.206 108.349 111.974 108.075C111.753 107.801 111.406 107.664 110.932 107.664C110.352 107.664 109.889 107.849 109.541 108.217C109.204 108.575 109.036 109.055 109.036 109.655V113.115C109.036 113.789 108.704 114.126 108.04 114.126ZM119.826 114.158C119.026 114.158 118.331 113.995 117.741 113.668C117.151 113.342 116.693 112.878 116.366 112.278C116.04 111.667 115.876 110.951 115.876 110.129C115.876 109.508 115.966 108.955 116.145 108.47C116.335 107.975 116.603 107.554 116.951 107.206C117.298 106.848 117.714 106.579 118.199 106.4C118.684 106.211 119.226 106.116 119.826 106.116C120.627 106.116 121.322 106.279 121.912 106.606C122.502 106.932 122.96 107.396 123.287 107.996C123.613 108.596 123.776 109.307 123.776 110.129C123.776 110.75 123.682 111.309 123.492 111.804C123.313 112.299 123.05 112.725 122.702 113.084C122.354 113.431 121.938 113.7 121.454 113.889C120.969 114.068 120.427 114.158 119.826 114.158ZM119.826 112.657C120.216 112.657 120.558 112.562 120.853 112.373C121.148 112.183 121.375 111.904 121.533 111.535C121.701 111.156 121.786 110.687 121.786 110.129C121.786 109.286 121.607 108.66 121.248 108.249C120.89 107.827 120.416 107.617 119.826 107.617C119.437 107.617 119.094 107.712 118.799 107.901C118.504 108.08 118.273 108.359 118.104 108.739C117.946 109.107 117.867 109.571 117.867 110.129C117.867 110.961 118.046 111.593 118.404 112.025C118.763 112.446 119.237 112.657 119.826 112.657ZM132.666 114.158C131.992 114.158 131.397 113.995 130.881 113.668C130.375 113.342 129.98 112.878 129.696 112.278C129.412 111.667 129.269 110.951 129.269 110.129C129.269 109.297 129.412 108.586 129.696 107.996C129.98 107.396 130.375 106.932 130.881 106.606C131.397 106.279 131.992 106.116 132.666 106.116C133.309 106.116 133.867 106.274 134.341 106.59C134.826 106.906 135.152 107.322 135.321 107.838H135.147V103.73C135.147 103.403 135.231 103.156 135.4 102.987C135.568 102.819 135.811 102.735 136.127 102.735C136.443 102.735 136.685 102.819 136.853 102.987C137.032 103.156 137.122 103.403 137.122 103.73V113.115C137.122 113.442 137.038 113.695 136.869 113.874C136.701 114.042 136.458 114.126 136.142 114.126C135.826 114.126 135.584 114.042 135.416 113.874C135.247 113.695 135.163 113.442 135.163 113.115V111.883L135.337 112.357C135.179 112.905 134.857 113.342 134.373 113.668C133.888 113.995 133.319 114.158 132.666 114.158ZM133.219 112.657C133.609 112.657 133.951 112.562 134.246 112.373C134.541 112.183 134.768 111.904 134.926 111.535C135.094 111.156 135.179 110.687 135.179 110.129C135.179 109.286 134.999 108.66 134.641 108.249C134.283 107.827 133.809 107.617 133.219 107.617C132.83 107.617 132.487 107.712 132.192 107.901C131.897 108.08 131.666 108.359 131.497 108.739C131.339 109.107 131.26 109.571 131.26 110.129C131.26 110.961 131.439 111.593 131.797 112.025C132.155 112.446 132.629 112.657 133.219 112.657ZM142.978 114.158C142.103 114.158 141.35 113.995 140.718 113.668C140.086 113.342 139.596 112.878 139.249 112.278C138.912 111.677 138.743 110.966 138.743 110.145C138.743 109.344 138.906 108.644 139.233 108.043C139.57 107.443 140.028 106.974 140.608 106.637C141.197 106.29 141.866 106.116 142.614 106.116C143.162 106.116 143.652 106.205 144.084 106.384C144.526 106.563 144.9 106.822 145.205 107.159C145.521 107.496 145.758 107.906 145.916 108.391C146.085 108.865 146.169 109.402 146.169 110.003C146.169 110.192 146.101 110.34 145.964 110.445C145.837 110.54 145.653 110.587 145.411 110.587H140.339V109.45H144.779L144.526 109.687C144.526 109.202 144.452 108.797 144.305 108.47C144.168 108.143 143.962 107.896 143.689 107.727C143.425 107.548 143.093 107.459 142.693 107.459C142.251 107.459 141.872 107.564 141.556 107.775C141.25 107.975 141.013 108.265 140.845 108.644C140.687 109.012 140.608 109.455 140.608 109.971V110.082C140.608 110.945 140.808 111.593 141.208 112.025C141.619 112.446 142.219 112.657 143.009 112.657C143.283 112.657 143.589 112.625 143.926 112.562C144.273 112.488 144.6 112.367 144.905 112.199C145.126 112.072 145.321 112.02 145.49 112.041C145.658 112.051 145.79 112.109 145.885 112.215C145.99 112.32 146.053 112.452 146.074 112.61C146.095 112.757 146.064 112.91 145.98 113.068C145.906 113.226 145.774 113.363 145.585 113.479C145.216 113.71 144.789 113.884 144.305 114C143.831 114.105 143.388 114.158 142.978 114.158ZM152.323 114.126C152.07 114.126 151.865 114.068 151.707 113.953C151.559 113.837 151.47 113.684 151.438 113.494C151.406 113.294 151.443 113.073 151.549 112.831L155.72 103.588C155.857 103.282 156.02 103.066 156.21 102.94C156.41 102.803 156.636 102.735 156.889 102.735C157.131 102.735 157.347 102.803 157.537 102.94C157.737 103.066 157.906 103.282 158.042 103.588L162.229 112.831C162.345 113.073 162.387 113.294 162.356 113.494C162.324 113.695 162.235 113.853 162.087 113.968C161.94 114.074 161.745 114.126 161.503 114.126C161.208 114.126 160.976 114.058 160.807 113.921C160.649 113.774 160.507 113.552 160.381 113.257L159.354 110.872L160.207 111.425H153.539L154.393 110.872L153.381 113.257C153.245 113.563 153.102 113.784 152.955 113.921C152.807 114.058 152.597 114.126 152.323 114.126ZM156.857 105.057L154.645 110.319L154.235 109.813H159.512L159.117 110.319L156.889 105.057H156.857ZM167.088 114.158C166.403 114.158 165.829 114.042 165.366 113.81C164.913 113.579 164.576 113.242 164.354 112.799C164.133 112.346 164.023 111.788 164.023 111.124V107.759H163.201C162.948 107.759 162.753 107.696 162.616 107.569C162.48 107.432 162.411 107.248 162.411 107.016C162.411 106.774 162.48 106.59 162.616 106.463C162.753 106.337 162.948 106.274 163.201 106.274H164.023V104.836C164.023 104.509 164.107 104.262 164.275 104.093C164.455 103.925 164.702 103.841 165.018 103.841C165.334 103.841 165.576 103.925 165.745 104.093C165.913 104.262 165.998 104.509 165.998 104.836V106.274H167.672C167.925 106.274 168.12 106.337 168.257 106.463C168.394 106.59 168.462 106.774 168.462 107.016C168.462 107.248 168.394 107.432 168.257 107.569C168.12 107.696 167.925 107.759 167.672 107.759H165.998V111.014C165.998 111.519 166.108 111.899 166.329 112.151C166.551 112.404 166.909 112.531 167.404 112.531C167.583 112.531 167.741 112.515 167.878 112.483C168.015 112.452 168.136 112.431 168.241 112.42C168.368 112.409 168.473 112.452 168.557 112.546C168.642 112.631 168.684 112.81 168.684 113.084C168.684 113.294 168.647 113.484 168.573 113.652C168.51 113.81 168.389 113.921 168.21 113.984C168.073 114.026 167.894 114.063 167.672 114.095C167.451 114.137 167.256 114.158 167.088 114.158ZM173.343 114.158C172.469 114.158 171.716 113.995 171.084 113.668C170.452 113.342 169.962 112.878 169.614 112.278C169.277 111.677 169.109 110.966 169.109 110.145C169.109 109.344 169.272 108.644 169.599 108.043C169.936 107.443 170.394 106.974 170.973 106.637C171.563 106.29 172.232 106.116 172.98 106.116C173.528 106.116 174.017 106.205 174.449 106.384C174.892 106.563 175.266 106.822 175.571 107.159C175.887 107.496 176.124 107.906 176.282 108.391C176.451 108.865 176.535 109.402 176.535 110.003C176.535 110.192 176.466 110.34 176.329 110.445C176.203 110.54 176.019 110.587 175.776 110.587H170.705V109.45H175.144L174.892 109.687C174.892 109.202 174.818 108.797 174.67 108.47C174.533 108.143 174.328 107.896 174.054 107.727C173.791 107.548 173.459 107.459 173.059 107.459C172.616 107.459 172.237 107.564 171.921 107.775C171.616 107.975 171.379 108.265 171.21 108.644C171.052 109.012 170.973 109.455 170.973 109.971V110.082C170.973 110.945 171.173 111.593 171.574 112.025C171.984 112.446 172.585 112.657 173.375 112.657C173.649 112.657 173.954 112.625 174.291 112.562C174.639 112.488 174.965 112.367 175.271 112.199C175.492 112.072 175.687 112.02 175.855 112.041C176.024 112.051 176.156 112.109 176.25 112.215C176.356 112.32 176.419 112.452 176.44 112.61C176.461 112.757 176.429 112.91 176.345 113.068C176.271 113.226 176.14 113.363 175.95 113.479C175.582 113.71 175.155 113.884 174.67 114C174.196 114.105 173.754 114.158 173.343 114.158ZM179.078 114.126C178.762 114.126 178.52 114.042 178.352 113.874C178.183 113.695 178.099 113.442 178.099 113.115V107.143C178.099 106.816 178.183 106.569 178.352 106.4C178.52 106.232 178.757 106.147 179.063 106.147C179.368 106.147 179.605 106.232 179.774 106.4C179.942 106.569 180.026 106.816 180.026 107.143V108.217L179.853 107.822C180.084 107.264 180.443 106.843 180.927 106.558C181.422 106.263 181.98 106.116 182.602 106.116C183.223 106.116 183.734 106.232 184.134 106.463C184.535 106.695 184.835 107.048 185.035 107.522C185.235 107.985 185.335 108.575 185.335 109.292V113.115C185.335 113.442 185.251 113.695 185.082 113.874C184.914 114.042 184.672 114.126 184.356 114.126C184.04 114.126 183.792 114.042 183.613 113.874C183.445 113.695 183.36 113.442 183.36 113.115V109.386C183.36 108.786 183.244 108.349 183.013 108.075C182.791 107.801 182.444 107.664 181.97 107.664C181.391 107.664 180.927 107.849 180.579 108.217C180.242 108.575 180.074 109.055 180.074 109.655V113.115C180.074 113.789 179.742 114.126 179.078 114.126ZM190.912 114.158C190.101 114.158 189.395 113.995 188.795 113.668C188.194 113.331 187.731 112.857 187.404 112.246C187.078 111.635 186.915 110.919 186.915 110.097C186.915 109.476 187.004 108.923 187.183 108.438C187.373 107.943 187.641 107.527 187.989 107.19C188.337 106.843 188.758 106.579 189.253 106.4C189.748 106.211 190.301 106.116 190.912 106.116C191.26 106.116 191.634 106.163 192.034 106.258C192.445 106.353 192.829 106.511 193.187 106.732C193.356 106.837 193.466 106.964 193.519 107.111C193.572 107.259 193.582 107.411 193.551 107.569C193.519 107.717 193.451 107.849 193.345 107.964C193.25 108.07 193.129 108.138 192.982 108.17C192.834 108.191 192.671 108.154 192.492 108.059C192.26 107.922 192.023 107.822 191.781 107.759C191.539 107.685 191.307 107.648 191.086 107.648C190.738 107.648 190.433 107.706 190.169 107.822C189.906 107.928 189.68 108.086 189.49 108.296C189.311 108.496 189.174 108.749 189.079 109.055C188.984 109.36 188.937 109.713 188.937 110.113C188.937 110.893 189.121 111.509 189.49 111.962C189.869 112.404 190.401 112.625 191.086 112.625C191.307 112.625 191.534 112.594 191.765 112.531C192.008 112.467 192.25 112.367 192.492 112.23C192.671 112.136 192.829 112.104 192.966 112.136C193.114 112.167 193.235 112.241 193.329 112.357C193.424 112.462 193.482 112.594 193.503 112.752C193.524 112.899 193.503 113.047 193.44 113.194C193.387 113.342 193.282 113.463 193.124 113.558C192.776 113.768 192.408 113.921 192.018 114.016C191.628 114.111 191.26 114.158 190.912 114.158ZM195.773 114.111C195.457 114.111 195.215 114.016 195.047 113.826C194.878 113.637 194.794 113.373 194.794 113.036V107.238C194.794 106.89 194.878 106.627 195.047 106.448C195.215 106.258 195.457 106.163 195.773 106.163C196.089 106.163 196.332 106.258 196.5 106.448C196.679 106.627 196.769 106.89 196.769 107.238V113.036C196.769 113.373 196.685 113.637 196.516 113.826C196.347 114.016 196.1 114.111 195.773 114.111ZM195.773 104.694C195.405 104.694 195.115 104.604 194.904 104.425C194.704 104.236 194.604 103.978 194.604 103.651C194.604 103.314 194.704 103.056 194.904 102.877C195.115 102.698 195.405 102.608 195.773 102.608C196.153 102.608 196.442 102.698 196.642 102.877C196.843 103.056 196.943 103.314 196.943 103.651C196.943 103.978 196.843 104.236 196.642 104.425C196.442 104.604 196.153 104.694 195.773 104.694ZM202.344 114.158C201.544 114.158 200.849 113.995 200.259 113.668C199.669 113.342 199.211 112.878 198.884 112.278C198.558 111.667 198.394 110.951 198.394 110.129C198.394 109.508 198.484 108.955 198.663 108.47C198.853 107.975 199.121 107.554 199.469 107.206C199.816 106.848 200.232 106.579 200.717 106.4C201.201 106.211 201.744 106.116 202.344 106.116C203.145 106.116 203.84 106.279 204.43 106.606C205.02 106.932 205.478 107.396 205.805 107.996C206.131 108.596 206.294 109.307 206.294 110.129C206.294 110.75 206.2 111.309 206.01 111.804C205.831 112.299 205.568 112.725 205.22 113.084C204.872 113.431 204.456 113.7 203.972 113.889C203.487 114.068 202.945 114.158 202.344 114.158ZM202.344 112.657C202.734 112.657 203.076 112.562 203.371 112.373C203.666 112.183 203.893 111.904 204.051 111.535C204.219 111.156 204.304 110.687 204.304 110.129C204.304 109.286 204.124 108.66 203.766 108.249C203.408 107.827 202.934 107.617 202.344 107.617C201.955 107.617 201.612 107.712 201.317 107.901C201.022 108.08 200.791 108.359 200.622 108.739C200.464 109.107 200.385 109.571 200.385 110.129C200.385 110.961 200.564 111.593 200.922 112.025C201.28 112.446 201.754 112.657 202.344 112.657ZM203.087 105.152C202.982 105.299 202.855 105.384 202.708 105.405C202.56 105.426 202.418 105.4 202.281 105.326C202.144 105.252 202.044 105.147 201.981 105.01C201.928 104.873 201.944 104.72 202.028 104.552L203.229 102.197C203.324 101.997 203.45 101.871 203.608 101.818C203.766 101.755 203.93 101.744 204.098 101.787C204.267 101.829 204.409 101.908 204.525 102.024C204.651 102.139 204.725 102.282 204.746 102.45C204.778 102.608 204.735 102.771 204.62 102.94L203.087 105.152ZM208.904 114.126C208.588 114.126 208.346 114.042 208.177 113.874C208.009 113.695 207.924 113.442 207.924 113.115V107.143C207.924 106.816 208.009 106.569 208.177 106.4C208.346 106.232 208.583 106.147 208.888 106.147C209.194 106.147 209.431 106.232 209.599 106.4C209.768 106.569 209.852 106.816 209.852 107.143V108.217L209.678 107.822C209.91 107.264 210.268 106.843 210.753 106.558C211.248 106.263 211.806 106.116 212.427 106.116C213.049 106.116 213.56 106.232 213.96 106.463C214.36 106.695 214.661 107.048 214.861 107.522C215.061 107.985 215.161 108.575 215.161 109.292V113.115C215.161 113.442 215.077 113.695 214.908 113.874C214.74 114.042 214.497 114.126 214.181 114.126C213.865 114.126 213.618 114.042 213.439 113.874C213.27 113.695 213.186 113.442 213.186 113.115V109.386C213.186 108.786 213.07 108.349 212.838 108.075C212.617 107.801 212.269 107.664 211.795 107.664C211.216 107.664 210.753 107.849 210.405 108.217C210.068 108.575 209.899 109.055 209.899 109.655V113.115C209.899 113.789 209.568 114.126 208.904 114.126ZM222.657 114.126C222.331 114.126 222.078 114.037 221.899 113.858C221.73 113.668 221.646 113.41 221.646 113.084V103.777C221.646 103.44 221.73 103.182 221.899 103.003C222.078 102.824 222.331 102.735 222.657 102.735C222.984 102.735 223.231 102.824 223.4 103.003C223.579 103.182 223.668 103.44 223.668 103.777V113.084C223.668 113.41 223.584 113.668 223.416 113.858C223.247 114.037 222.994 114.126 222.657 114.126ZM226.895 114.126C226.579 114.126 226.337 114.042 226.168 113.874C226 113.695 225.915 113.442 225.915 113.115V107.143C225.915 106.816 226 106.569 226.168 106.4C226.337 106.232 226.574 106.147 226.879 106.147C227.185 106.147 227.422 106.232 227.59 106.4C227.759 106.569 227.843 106.816 227.843 107.143V108.217L227.669 107.822C227.901 107.264 228.259 106.843 228.744 106.558C229.239 106.263 229.797 106.116 230.418 106.116C231.04 106.116 231.551 106.232 231.951 106.463C232.351 106.695 232.652 107.048 232.852 107.522C233.052 107.985 233.152 108.575 233.152 109.292V113.115C233.152 113.442 233.068 113.695 232.899 113.874C232.731 114.042 232.488 114.126 232.172 114.126C231.856 114.126 231.609 114.042 231.43 113.874C231.261 113.695 231.177 113.442 231.177 113.115V109.386C231.177 108.786 231.061 108.349 230.829 108.075C230.608 107.801 230.26 107.664 229.786 107.664C229.207 107.664 228.744 107.849 228.396 108.217C228.059 108.575 227.89 109.055 227.89 109.655V113.115C227.89 113.789 227.559 114.126 226.895 114.126ZM238.697 114.158C238.012 114.158 237.438 114.042 236.975 113.81C236.522 113.579 236.185 113.242 235.964 112.799C235.742 112.346 235.632 111.788 235.632 111.124V107.759H234.81C234.557 107.759 234.363 107.696 234.226 107.569C234.089 107.432 234.02 107.248 234.02 107.016C234.02 106.774 234.089 106.59 234.226 106.463C234.363 106.337 234.557 106.274 234.81 106.274H235.632V104.836C235.632 104.509 235.716 104.262 235.885 104.093C236.064 103.925 236.311 103.841 236.627 103.841C236.943 103.841 237.186 103.925 237.354 104.093C237.523 104.262 237.607 104.509 237.607 104.836V106.274H239.282C239.534 106.274 239.729 106.337 239.866 106.463C240.003 106.59 240.072 106.774 240.072 107.016C240.072 107.248 240.003 107.432 239.866 107.569C239.729 107.696 239.534 107.759 239.282 107.759H237.607V111.014C237.607 111.519 237.717 111.899 237.939 112.151C238.16 112.404 238.518 112.531 239.013 112.531C239.192 112.531 239.35 112.515 239.487 112.483C239.624 112.452 239.745 112.431 239.85 112.42C239.977 112.409 240.082 112.452 240.166 112.546C240.251 112.631 240.293 112.81 240.293 113.084C240.293 113.294 240.256 113.484 240.182 113.652C240.119 113.81 239.998 113.921 239.819 113.984C239.682 114.026 239.503 114.063 239.282 114.095C239.06 114.137 238.866 114.158 238.697 114.158ZM244.952 114.158C244.078 114.158 243.325 113.995 242.693 113.668C242.061 113.342 241.571 112.878 241.224 112.278C240.887 111.677 240.718 110.966 240.718 110.145C240.718 109.344 240.881 108.644 241.208 108.043C241.545 107.443 242.003 106.974 242.582 106.637C243.172 106.29 243.841 106.116 244.589 106.116C245.137 106.116 245.627 106.205 246.058 106.384C246.501 106.563 246.875 106.822 247.18 107.159C247.496 107.496 247.733 107.906 247.891 108.391C248.06 108.865 248.144 109.402 248.144 110.003C248.144 110.192 248.076 110.34 247.939 110.445C247.812 110.54 247.628 110.587 247.386 110.587H242.314V109.45H246.754L246.501 109.687C246.501 109.202 246.427 108.797 246.28 108.47C246.143 108.143 245.937 107.896 245.663 107.727C245.4 107.548 245.068 107.459 244.668 107.459C244.226 107.459 243.846 107.564 243.53 107.775C243.225 107.975 242.988 108.265 242.819 108.644C242.661 109.012 242.582 109.455 242.582 109.971V110.082C242.582 110.945 242.783 111.593 243.183 112.025C243.594 112.446 244.194 112.657 244.984 112.657C245.258 112.657 245.563 112.625 245.9 112.562C246.248 112.488 246.575 112.367 246.88 112.199C247.101 112.072 247.296 112.02 247.465 112.041C247.633 112.051 247.765 112.109 247.86 112.215C247.965 112.32 248.028 112.452 248.049 112.61C248.07 112.757 248.039 112.91 247.954 113.068C247.881 113.226 247.749 113.363 247.559 113.479C247.191 113.71 246.764 113.884 246.28 114C245.806 114.105 245.363 114.158 244.952 114.158ZM253.31 117.002C252.742 117.002 252.189 116.949 251.651 116.844C251.125 116.739 250.646 116.575 250.214 116.354C250.014 116.249 249.877 116.122 249.803 115.975C249.74 115.828 249.719 115.675 249.74 115.517C249.771 115.369 249.834 115.238 249.929 115.122C250.035 115.006 250.161 114.927 250.308 114.885C250.456 114.843 250.609 114.864 250.767 114.948C251.23 115.18 251.667 115.327 252.078 115.39C252.499 115.464 252.858 115.501 253.152 115.501C253.858 115.501 254.385 115.327 254.732 114.98C255.091 114.643 255.27 114.137 255.27 113.463V112.041H255.412C255.254 112.578 254.922 113.01 254.416 113.336C253.921 113.652 253.358 113.81 252.726 113.81C252.031 113.81 251.425 113.652 250.909 113.336C250.393 113.01 249.992 112.557 249.708 111.978C249.424 111.398 249.281 110.724 249.281 109.955C249.281 109.376 249.36 108.854 249.518 108.391C249.687 107.917 249.919 107.511 250.214 107.174C250.519 106.837 250.883 106.579 251.304 106.4C251.736 106.211 252.21 106.116 252.726 106.116C253.379 106.116 253.948 106.279 254.432 106.606C254.927 106.922 255.249 107.343 255.396 107.87L255.238 108.265V107.143C255.238 106.816 255.322 106.569 255.491 106.4C255.67 106.232 255.912 106.147 256.218 106.147C256.534 106.147 256.776 106.232 256.944 106.4C257.113 106.569 257.197 106.816 257.197 107.143V113.226C257.197 114.479 256.865 115.422 256.202 116.054C255.538 116.686 254.574 117.002 253.31 117.002ZM253.263 112.309C253.674 112.309 254.027 112.215 254.322 112.025C254.617 111.835 254.843 111.567 255.001 111.219C255.17 110.861 255.254 110.44 255.254 109.955C255.254 109.228 255.075 108.66 254.717 108.249C254.359 107.827 253.874 107.617 253.263 107.617C252.852 107.617 252.499 107.712 252.204 107.901C251.91 108.091 251.678 108.359 251.509 108.707C251.351 109.055 251.272 109.471 251.272 109.955C251.272 110.682 251.451 111.256 251.809 111.677C252.168 112.099 252.652 112.309 253.263 112.309ZM260.255 114.126C259.928 114.126 259.675 114.042 259.496 113.874C259.328 113.695 259.244 113.442 259.244 113.115V107.143C259.244 106.816 259.328 106.569 259.496 106.4C259.665 106.232 259.902 106.147 260.207 106.147C260.513 106.147 260.75 106.232 260.918 106.4C261.087 106.569 261.171 106.816 261.171 107.143V108.138H261.013C261.161 107.506 261.45 107.027 261.882 106.7C262.314 106.374 262.888 106.179 263.604 106.116C263.826 106.095 263.999 106.153 264.126 106.29C264.263 106.416 264.342 106.616 264.363 106.89C264.384 107.153 264.321 107.369 264.173 107.538C264.036 107.696 263.826 107.791 263.541 107.822L263.194 107.854C262.551 107.917 262.067 108.117 261.74 108.454C261.413 108.781 261.25 109.244 261.25 109.845V113.115C261.25 113.442 261.166 113.695 260.997 113.874C260.829 114.042 260.581 114.126 260.255 114.126ZM267.898 114.158C267.339 114.158 266.839 114.053 266.397 113.842C265.965 113.621 265.622 113.326 265.37 112.957C265.127 112.589 265.006 112.172 265.006 111.709C265.006 111.14 265.154 110.693 265.449 110.366C265.743 110.029 266.223 109.787 266.886 109.639C267.55 109.492 268.44 109.418 269.557 109.418H270.347V110.556H269.572C268.919 110.556 268.398 110.587 268.008 110.65C267.618 110.714 267.339 110.824 267.171 110.982C267.013 111.13 266.934 111.34 266.934 111.614C266.934 111.962 267.055 112.246 267.297 112.467C267.539 112.689 267.876 112.799 268.308 112.799C268.656 112.799 268.961 112.72 269.225 112.562C269.499 112.394 269.715 112.167 269.873 111.883C270.031 111.598 270.11 111.272 270.11 110.903V109.086C270.11 108.56 269.994 108.18 269.762 107.949C269.53 107.717 269.14 107.601 268.593 107.601C268.287 107.601 267.955 107.638 267.597 107.712C267.25 107.785 266.881 107.912 266.491 108.091C266.291 108.186 266.112 108.212 265.954 108.17C265.807 108.128 265.691 108.043 265.607 107.917C265.522 107.78 265.48 107.633 265.48 107.475C265.48 107.317 265.522 107.164 265.607 107.016C265.691 106.858 265.833 106.743 266.033 106.669C266.518 106.469 266.981 106.326 267.424 106.242C267.876 106.158 268.287 106.116 268.656 106.116C269.414 106.116 270.036 106.232 270.52 106.463C271.015 106.695 271.384 107.048 271.626 107.522C271.869 107.985 271.99 108.586 271.99 109.323V113.115C271.99 113.442 271.911 113.695 271.753 113.874C271.595 114.042 271.368 114.126 271.073 114.126C270.778 114.126 270.547 114.042 270.378 113.874C270.22 113.695 270.141 113.442 270.141 113.115V112.357H270.268C270.194 112.725 270.046 113.047 269.825 113.321C269.614 113.584 269.346 113.789 269.019 113.937C268.693 114.084 268.319 114.158 267.898 114.158ZM276.633 114.158C275.759 114.158 275.1 113.91 274.658 113.415C274.216 112.91 273.994 112.172 273.994 111.203V103.73C273.994 103.403 274.079 103.156 274.247 102.987C274.416 102.819 274.658 102.735 274.974 102.735C275.29 102.735 275.532 102.819 275.701 102.987C275.88 103.156 275.969 103.403 275.969 103.73V111.109C275.969 111.593 276.069 111.951 276.27 112.183C276.48 112.415 276.775 112.531 277.154 112.531C277.239 112.531 277.318 112.531 277.391 112.531C277.465 112.52 277.539 112.51 277.613 112.499C277.76 112.478 277.86 112.52 277.913 112.625C277.965 112.72 277.992 112.92 277.992 113.226C277.992 113.489 277.939 113.695 277.834 113.842C277.728 113.989 277.555 114.079 277.312 114.111C277.207 114.121 277.096 114.132 276.981 114.142C276.865 114.153 276.749 114.158 276.633 114.158ZM285.873 114.158C285.315 114.158 284.815 114.053 284.372 113.842C283.94 113.621 283.598 113.326 283.345 112.957C283.103 112.589 282.982 112.172 282.982 111.709C282.982 111.14 283.129 110.693 283.424 110.366C283.719 110.029 284.198 109.787 284.862 109.639C285.526 109.492 286.416 109.418 287.532 109.418H288.322V110.556H287.548C286.895 110.556 286.373 110.587 285.984 110.65C285.594 110.714 285.315 110.824 285.146 110.982C284.988 111.13 284.909 111.34 284.909 111.614C284.909 111.962 285.03 112.246 285.273 112.467C285.515 112.689 285.852 112.799 286.284 112.799C286.632 112.799 286.937 112.72 287.2 112.562C287.474 112.394 287.69 112.167 287.848 111.883C288.006 111.598 288.085 111.272 288.085 110.903V109.086C288.085 108.56 287.969 108.18 287.738 107.949C287.506 107.717 287.116 107.601 286.568 107.601C286.263 107.601 285.931 107.638 285.573 107.712C285.225 107.785 284.857 107.912 284.467 108.091C284.267 108.186 284.088 108.212 283.93 108.17C283.782 108.128 283.666 108.043 283.582 107.917C283.498 107.78 283.456 107.633 283.456 107.475C283.456 107.317 283.498 107.164 283.582 107.016C283.666 106.858 283.809 106.743 284.009 106.669C284.493 106.469 284.957 106.326 285.399 106.242C285.852 106.158 286.263 106.116 286.632 106.116C287.39 106.116 288.011 106.232 288.496 106.463C288.991 106.695 289.36 107.048 289.602 107.522C289.844 107.985 289.965 108.586 289.965 109.323V113.115C289.965 113.442 289.886 113.695 289.728 113.874C289.57 114.042 289.344 114.126 289.049 114.126C288.754 114.126 288.522 114.042 288.354 113.874C288.196 113.695 288.117 113.442 288.117 113.115V112.357H288.243C288.169 112.725 288.022 113.047 287.801 113.321C287.59 113.584 287.321 113.789 286.995 113.937C286.668 114.084 286.294 114.158 285.873 114.158ZM298.898 114.158C298.024 114.158 297.365 113.91 296.923 113.415C296.481 112.91 296.259 112.172 296.259 111.203V103.73C296.259 103.403 296.344 103.156 296.512 102.987C296.681 102.819 296.923 102.735 297.239 102.735C297.555 102.735 297.797 102.819 297.966 102.987C298.145 103.156 298.234 103.403 298.234 103.73V111.109C298.234 111.593 298.334 111.951 298.535 112.183C298.745 112.415 299.04 112.531 299.419 112.531C299.504 112.531 299.583 112.531 299.656 112.531C299.73 112.52 299.804 112.51 299.878 112.499C300.025 112.478 300.125 112.52 300.178 112.625C300.23 112.72 300.257 112.92 300.257 113.226C300.257 113.489 300.204 113.695 300.099 113.842C299.993 113.989 299.82 114.079 299.577 114.111C299.472 114.121 299.361 114.132 299.246 114.142C299.13 114.153 299.014 114.158 298.898 114.158ZM303.849 114.158C303.29 114.158 302.79 114.053 302.348 113.842C301.916 113.621 301.574 113.326 301.321 112.957C301.078 112.589 300.957 112.172 300.957 111.709C300.957 111.14 301.105 110.693 301.4 110.366C301.695 110.029 302.174 109.787 302.838 109.639C303.501 109.492 304.391 109.418 305.508 109.418H306.298V110.556H305.524C304.87 110.556 304.349 110.587 303.959 110.65C303.57 110.714 303.29 110.824 303.122 110.982C302.964 111.13 302.885 111.34 302.885 111.614C302.885 111.962 303.006 112.246 303.248 112.467C303.491 112.689 303.828 112.799 304.26 112.799C304.607 112.799 304.913 112.72 305.176 112.562C305.45 112.394 305.666 112.167 305.824 111.883C305.982 111.598 306.061 111.272 306.061 110.903V109.086C306.061 108.56 305.945 108.18 305.713 107.949C305.481 107.717 305.092 107.601 304.544 107.601C304.238 107.601 303.907 107.638 303.549 107.712C303.201 107.785 302.832 107.912 302.443 108.091C302.242 108.186 302.063 108.212 301.905 108.17C301.758 108.128 301.642 108.043 301.558 107.917C301.473 107.78 301.431 107.633 301.431 107.475C301.431 107.317 301.473 107.164 301.558 107.016C301.642 106.858 301.784 106.743 301.984 106.669C302.469 106.469 302.932 106.326 303.375 106.242C303.828 106.158 304.238 106.116 304.607 106.116C305.366 106.116 305.987 106.232 306.472 106.463C306.967 106.695 307.335 107.048 307.578 107.522C307.82 107.985 307.941 108.586 307.941 109.323V113.115C307.941 113.442 307.862 113.695 307.704 113.874C307.546 114.042 307.319 114.126 307.025 114.126C306.73 114.126 306.498 114.042 306.329 113.874C306.171 113.695 306.092 113.442 306.092 113.115V112.357H306.219C306.145 112.725 305.998 113.047 305.776 113.321C305.566 113.584 305.297 113.789 304.971 113.937C304.644 114.084 304.27 114.158 303.849 114.158ZM315.467 114.126C315.141 114.126 314.883 114.037 314.693 113.858C314.514 113.668 314.425 113.4 314.425 113.052V103.935C314.425 103.588 314.514 103.324 314.693 103.145C314.883 102.956 315.151 102.861 315.499 102.861H321.013C321.287 102.861 321.492 102.929 321.629 103.066C321.766 103.203 321.835 103.398 321.835 103.651C321.835 103.914 321.766 104.12 321.629 104.267C321.492 104.404 321.287 104.473 321.013 104.473H316.447V107.617H320.681C320.945 107.617 321.145 107.685 321.282 107.822C321.429 107.959 321.503 108.154 321.503 108.407C321.503 108.67 321.429 108.876 321.282 109.023C321.145 109.16 320.945 109.228 320.681 109.228H316.447V113.052C316.447 113.768 316.12 114.126 315.467 114.126ZM325.342 114.158C324.784 114.158 324.284 114.053 323.841 113.842C323.409 113.621 323.067 113.326 322.814 112.957C322.572 112.589 322.451 112.172 322.451 111.709C322.451 111.14 322.598 110.693 322.893 110.366C323.188 110.029 323.667 109.787 324.331 109.639C324.995 109.492 325.885 109.418 327.001 109.418H327.791V110.556H327.017C326.364 110.556 325.843 110.587 325.453 110.65C325.063 110.714 324.784 110.824 324.615 110.982C324.457 111.13 324.378 111.34 324.378 111.614C324.378 111.962 324.5 112.246 324.742 112.467C324.984 112.689 325.321 112.799 325.753 112.799C326.101 112.799 326.406 112.72 326.669 112.562C326.943 112.394 327.159 112.167 327.317 111.883C327.475 111.598 327.554 111.272 327.554 110.903V109.086C327.554 108.56 327.438 108.18 327.207 107.949C326.975 107.717 326.585 107.601 326.037 107.601C325.732 107.601 325.4 107.638 325.042 107.712C324.694 107.785 324.326 107.912 323.936 108.091C323.736 108.186 323.557 108.212 323.399 108.17C323.251 108.128 323.136 108.043 323.051 107.917C322.967 107.78 322.925 107.633 322.925 107.475C322.925 107.317 322.967 107.164 323.051 107.016C323.136 106.858 323.278 106.743 323.478 106.669C323.962 106.469 324.426 106.326 324.868 106.242C325.321 106.158 325.732 106.116 326.101 106.116C326.859 106.116 327.481 106.232 327.965 106.463C328.46 106.695 328.829 107.048 329.071 107.522C329.313 107.985 329.434 108.586 329.434 109.323V113.115C329.434 113.442 329.355 113.695 329.197 113.874C329.039 114.042 328.813 114.126 328.518 114.126C328.223 114.126 327.991 114.042 327.823 113.874C327.665 113.695 327.586 113.442 327.586 113.115V112.357H327.712C327.639 112.725 327.491 113.047 327.27 113.321C327.059 113.584 326.791 113.789 326.464 113.937C326.138 114.084 325.764 114.158 325.342 114.158ZM332.45 114.126C332.134 114.126 331.892 114.042 331.724 113.874C331.555 113.695 331.471 113.442 331.471 113.115V107.143C331.471 106.816 331.555 106.569 331.724 106.4C331.892 106.232 332.129 106.147 332.435 106.147C332.74 106.147 332.977 106.232 333.146 106.4C333.314 106.569 333.398 106.816 333.398 107.143V108.296L333.225 107.822C333.435 107.296 333.762 106.879 334.204 106.574C334.647 106.269 335.173 106.116 335.784 106.116C336.406 106.116 336.916 106.263 337.317 106.558C337.717 106.853 337.996 107.306 338.154 107.917H337.933C338.144 107.359 338.491 106.922 338.976 106.606C339.46 106.279 340.019 106.116 340.651 106.116C341.24 106.116 341.725 106.232 342.104 106.463C342.494 106.695 342.784 107.048 342.973 107.522C343.163 107.985 343.258 108.575 343.258 109.292V113.115C343.258 113.442 343.168 113.695 342.989 113.874C342.82 114.042 342.578 114.126 342.262 114.126C341.946 114.126 341.704 114.042 341.535 113.874C341.367 113.695 341.283 113.442 341.283 113.115V109.371C341.283 108.781 341.182 108.349 340.982 108.075C340.793 107.801 340.466 107.664 340.003 107.664C339.487 107.664 339.081 107.849 338.786 108.217C338.491 108.575 338.344 109.076 338.344 109.718V113.115C338.344 113.442 338.259 113.695 338.091 113.874C337.922 114.042 337.68 114.126 337.364 114.126C337.048 114.126 336.801 114.042 336.622 113.874C336.453 113.695 336.369 113.442 336.369 113.115V109.371C336.369 108.781 336.269 108.349 336.069 108.075C335.879 107.801 335.558 107.664 335.105 107.664C334.589 107.664 334.183 107.849 333.888 108.217C333.593 108.575 333.446 109.076 333.446 109.718V113.115C333.446 113.789 333.114 114.126 332.45 114.126ZM346.275 114.111C345.959 114.111 345.716 114.016 345.548 113.826C345.379 113.637 345.295 113.373 345.295 113.036V107.238C345.295 106.89 345.379 106.627 345.548 106.448C345.716 106.258 345.959 106.163 346.275 106.163C346.591 106.163 346.833 106.258 347.001 106.448C347.18 106.627 347.27 106.89 347.27 107.238V113.036C347.27 113.373 347.186 113.637 347.017 113.826C346.849 114.016 346.601 114.111 346.275 114.111ZM346.275 104.694C345.906 104.694 345.616 104.604 345.406 104.425C345.205 104.236 345.105 103.978 345.105 103.651C345.105 103.314 345.205 103.056 345.406 102.877C345.616 102.698 345.906 102.608 346.275 102.608C346.654 102.608 346.943 102.698 347.144 102.877C347.344 103.056 347.444 103.314 347.444 103.651C347.444 103.978 347.344 104.236 347.144 104.425C346.943 104.604 346.654 104.694 346.275 104.694ZM351.961 114.158C351.086 114.158 350.428 113.91 349.986 113.415C349.543 112.91 349.322 112.172 349.322 111.203V103.73C349.322 103.403 349.406 103.156 349.575 102.987C349.743 102.819 349.986 102.735 350.302 102.735C350.618 102.735 350.86 102.819 351.029 102.987C351.208 103.156 351.297 103.403 351.297 103.73V111.109C351.297 111.593 351.397 111.951 351.597 112.183C351.808 112.415 352.103 112.531 352.482 112.531C352.566 112.531 352.645 112.531 352.719 112.531C352.793 112.52 352.867 112.51 352.94 112.499C353.088 112.478 353.188 112.52 353.241 112.625C353.293 112.72 353.32 112.92 353.32 113.226C353.32 113.489 353.267 113.695 353.162 113.842C353.056 113.989 352.882 114.079 352.64 114.111C352.535 114.121 352.424 114.132 352.308 114.142C352.192 114.153 352.077 114.158 351.961 114.158ZM355.347 114.111C355.031 114.111 354.789 114.016 354.62 113.826C354.452 113.637 354.368 113.373 354.368 113.036V107.238C354.368 106.89 354.452 106.627 354.62 106.448C354.789 106.258 355.031 106.163 355.347 106.163C355.663 106.163 355.906 106.258 356.074 106.448C356.253 106.627 356.343 106.89 356.343 107.238V113.036C356.343 113.373 356.258 113.637 356.09 113.826C355.921 114.016 355.674 114.111 355.347 114.111ZM355.347 104.694C354.979 104.694 354.689 104.604 354.478 104.425C354.278 104.236 354.178 103.978 354.178 103.651C354.178 103.314 354.278 103.056 354.478 102.877C354.689 102.698 354.979 102.608 355.347 102.608C355.726 102.608 356.016 102.698 356.216 102.877C356.416 103.056 356.516 103.314 356.516 103.651C356.516 103.978 356.416 104.236 356.216 104.425C356.016 104.604 355.726 104.694 355.347 104.694ZM360.939 114.158C360.38 114.158 359.88 114.053 359.438 113.842C359.006 113.621 358.663 113.326 358.411 112.957C358.168 112.589 358.047 112.172 358.047 111.709C358.047 111.14 358.195 110.693 358.49 110.366C358.785 110.029 359.264 109.787 359.927 109.639C360.591 109.492 361.481 109.418 362.598 109.418H363.388V110.556H362.613C361.96 110.556 361.439 110.587 361.049 110.65C360.659 110.714 360.38 110.824 360.212 110.982C360.054 111.13 359.975 111.34 359.975 111.614C359.975 111.962 360.096 112.246 360.338 112.467C360.58 112.689 360.918 112.799 361.349 112.799C361.697 112.799 362.002 112.72 362.266 112.562C362.54 112.394 362.756 112.167 362.914 111.883C363.072 111.598 363.151 111.272 363.151 110.903V109.086C363.151 108.56 363.035 108.18 362.803 107.949C362.571 107.717 362.182 107.601 361.634 107.601C361.328 107.601 360.997 107.638 360.638 107.712C360.291 107.785 359.922 107.912 359.532 108.091C359.332 108.186 359.153 108.212 358.995 108.17C358.848 108.128 358.732 108.043 358.648 107.917C358.563 107.78 358.521 107.633 358.521 107.475C358.521 107.317 358.563 107.164 358.648 107.016C358.732 106.858 358.874 106.743 359.074 106.669C359.559 106.469 360.022 106.326 360.465 106.242C360.918 106.158 361.328 106.116 361.697 106.116C362.455 106.116 363.077 106.232 363.561 106.463C364.056 106.695 364.425 107.048 364.667 107.522C364.91 107.985 365.031 108.586 365.031 109.323V113.115C365.031 113.442 364.952 113.695 364.794 113.874C364.636 114.042 364.409 114.126 364.114 114.126C363.819 114.126 363.588 114.042 363.419 113.874C363.261 113.695 363.182 113.442 363.182 113.115V112.357H363.309C363.235 112.725 363.087 113.047 362.866 113.321C362.656 113.584 362.387 113.789 362.06 113.937C361.734 114.084 361.36 114.158 360.939 114.158ZM372.589 114C372.241 114 371.973 113.91 371.783 113.731C371.604 113.542 371.514 113.273 371.514 112.926V103.935C371.514 103.588 371.604 103.324 371.783 103.145C371.973 102.956 372.241 102.861 372.589 102.861H378.229C378.493 102.861 378.693 102.929 378.83 103.066C378.977 103.203 379.051 103.398 379.051 103.651C379.051 103.914 378.977 104.12 378.83 104.267C378.693 104.404 378.493 104.473 378.229 104.473H373.458V107.538H377.882C378.156 107.538 378.361 107.606 378.498 107.743C378.635 107.88 378.703 108.08 378.703 108.344C378.703 108.607 378.635 108.807 378.498 108.944C378.361 109.081 378.156 109.149 377.882 109.149H373.458V112.388H378.229C378.493 112.388 378.693 112.457 378.83 112.594C378.977 112.731 379.051 112.931 379.051 113.194C379.051 113.458 378.977 113.658 378.83 113.795C378.693 113.932 378.493 114 378.229 114H372.589ZM381.764 114.126C381.448 114.126 381.205 114.042 381.037 113.874C380.868 113.695 380.784 113.442 380.784 113.115V107.143C380.784 106.816 380.868 106.569 381.037 106.4C381.205 106.232 381.442 106.147 381.748 106.147C382.053 106.147 382.29 106.232 382.459 106.4C382.627 106.569 382.712 106.816 382.712 107.143V108.296L382.538 107.822C382.748 107.296 383.075 106.879 383.517 106.574C383.96 106.269 384.486 106.116 385.097 106.116C385.719 106.116 386.23 106.263 386.63 106.558C387.03 106.853 387.309 107.306 387.467 107.917H387.246C387.457 107.359 387.804 106.922 388.289 106.606C388.774 106.279 389.332 106.116 389.964 106.116C390.554 106.116 391.038 106.232 391.417 106.463C391.807 106.695 392.097 107.048 392.286 107.522C392.476 107.985 392.571 108.575 392.571 109.292V113.115C392.571 113.442 392.481 113.695 392.302 113.874C392.134 114.042 391.891 114.126 391.575 114.126C391.259 114.126 391.017 114.042 390.849 113.874C390.68 113.695 390.596 113.442 390.596 113.115V109.371C390.596 108.781 390.496 108.349 390.296 108.075C390.106 107.801 389.779 107.664 389.316 107.664C388.8 107.664 388.394 107.849 388.099 108.217C387.804 108.575 387.657 109.076 387.657 109.718V113.115C387.657 113.442 387.573 113.695 387.404 113.874C387.236 114.042 386.993 114.126 386.677 114.126C386.361 114.126 386.114 114.042 385.935 113.874C385.766 113.695 385.682 113.442 385.682 113.115V109.371C385.682 108.781 385.582 108.349 385.382 108.075C385.192 107.801 384.871 107.664 384.418 107.664C383.902 107.664 383.496 107.849 383.201 108.217C382.906 108.575 382.759 109.076 382.759 109.718V113.115C382.759 113.789 382.427 114.126 381.764 114.126ZM397.152 114.158C396.594 114.158 396.093 114.053 395.651 113.842C395.219 113.621 394.877 113.326 394.624 112.957C394.382 112.589 394.261 112.172 394.261 111.709C394.261 111.14 394.408 110.693 394.703 110.366C394.998 110.029 395.477 109.787 396.141 109.639C396.804 109.492 397.695 109.418 398.811 109.418H399.601V110.556H398.827C398.174 110.556 397.652 110.587 397.263 110.65C396.873 110.714 396.594 110.824 396.425 110.982C396.267 111.13 396.188 111.34 396.188 111.614C396.188 111.962 396.309 112.246 396.552 112.467C396.794 112.689 397.131 112.799 397.563 112.799C397.91 112.799 398.216 112.72 398.479 112.562C398.753 112.394 398.969 112.167 399.127 111.883C399.285 111.598 399.364 111.272 399.364 110.903V109.086C399.364 108.56 399.248 108.18 399.016 107.949C398.785 107.717 398.395 107.601 397.847 107.601C397.542 107.601 397.21 107.638 396.852 107.712C396.504 107.785 396.136 107.912 395.746 108.091C395.546 108.186 395.367 108.212 395.209 108.17C395.061 108.128 394.945 108.043 394.861 107.917C394.777 107.78 394.735 107.633 394.735 107.475C394.735 107.317 394.777 107.164 394.861 107.016C394.945 106.858 395.088 106.743 395.288 106.669C395.772 106.469 396.236 106.326 396.678 106.242C397.131 106.158 397.542 106.116 397.91 106.116C398.669 106.116 399.29 106.232 399.775 106.463C400.27 106.695 400.639 107.048 400.881 107.522C401.123 107.985 401.244 108.586 401.244 109.323V113.115C401.244 113.442 401.165 113.695 401.007 113.874C400.849 114.042 400.623 114.126 400.328 114.126C400.033 114.126 399.801 114.042 399.633 113.874C399.475 113.695 399.396 113.442 399.396 113.115V112.357H399.522C399.448 112.725 399.301 113.047 399.08 113.321C398.869 113.584 398.6 113.789 398.274 113.937C397.947 114.084 397.573 114.158 397.152 114.158ZM404.228 114.126C403.912 114.126 403.67 114.042 403.502 113.874C403.333 113.695 403.249 113.442 403.249 113.115V107.143C403.249 106.816 403.333 106.569 403.502 106.4C403.67 106.232 403.907 106.147 404.213 106.147C404.518 106.147 404.755 106.232 404.924 106.4C405.092 106.569 405.176 106.816 405.176 107.143V108.217L405.003 107.822C405.234 107.264 405.593 106.843 406.077 106.558C406.572 106.263 407.13 106.116 407.752 106.116C408.373 106.116 408.884 106.232 409.284 106.463C409.685 106.695 409.985 107.048 410.185 107.522C410.385 107.985 410.485 108.575 410.485 109.292V113.115C410.485 113.442 410.401 113.695 410.232 113.874C410.064 114.042 409.822 114.126 409.506 114.126C409.19 114.126 408.942 114.042 408.763 113.874C408.595 113.695 408.51 113.442 408.51 113.115V109.386C408.51 108.786 408.394 108.349 408.163 108.075C407.941 107.801 407.594 107.664 407.12 107.664C406.541 107.664 406.077 107.849 405.729 108.217C405.392 108.575 405.224 109.055 405.224 109.655V113.115C405.224 113.789 404.892 114.126 404.228 114.126ZM415.288 114.158C414.645 114.158 414.113 114.042 413.692 113.81C413.271 113.568 412.955 113.21 412.744 112.736C412.544 112.262 412.444 111.672 412.444 110.966V107.143C412.444 106.806 412.528 106.558 412.697 106.4C412.865 106.232 413.107 106.147 413.423 106.147C413.739 106.147 413.982 106.232 414.15 106.4C414.329 106.558 414.419 106.806 414.419 107.143V110.998C414.419 111.546 414.529 111.951 414.751 112.215C414.972 112.478 415.325 112.61 415.809 112.61C416.336 112.61 416.768 112.431 417.105 112.072C417.442 111.704 417.61 111.219 417.61 110.619V107.143C417.61 106.806 417.695 106.558 417.863 106.4C418.032 106.232 418.274 106.147 418.59 106.147C418.906 106.147 419.148 106.232 419.317 106.4C419.496 106.558 419.585 106.806 419.585 107.143V113.115C419.585 113.789 419.264 114.126 418.622 114.126C418.316 114.126 418.079 114.042 417.911 113.874C417.742 113.695 417.658 113.442 417.658 113.115V111.914L417.879 112.388C417.658 112.957 417.321 113.394 416.868 113.7C416.425 114.005 415.899 114.158 415.288 114.158ZM425.449 114.158C424.575 114.158 423.821 113.995 423.189 113.668C422.557 113.342 422.068 112.878 421.72 112.278C421.383 111.677 421.214 110.966 421.214 110.145C421.214 109.344 421.378 108.644 421.704 108.043C422.041 107.443 422.5 106.974 423.079 106.637C423.669 106.29 424.338 106.116 425.085 106.116C425.633 106.116 426.123 106.205 426.555 106.384C426.997 106.563 427.371 106.822 427.677 107.159C427.993 107.496 428.23 107.906 428.388 108.391C428.556 108.865 428.64 109.402 428.64 110.003C428.64 110.192 428.572 110.34 428.435 110.445C428.309 110.54 428.124 110.587 427.882 110.587H422.81V109.45H427.25L426.997 109.687C426.997 109.202 426.924 108.797 426.776 108.47C426.639 108.143 426.434 107.896 426.16 107.727C425.897 107.548 425.565 107.459 425.164 107.459C424.722 107.459 424.343 107.564 424.027 107.775C423.721 107.975 423.484 108.265 423.316 108.644C423.158 109.012 423.079 109.455 423.079 109.971V110.082C423.079 110.945 423.279 111.593 423.679 112.025C424.09 112.446 424.69 112.657 425.48 112.657C425.754 112.657 426.06 112.625 426.397 112.562C426.744 112.488 427.071 112.367 427.376 112.199C427.598 112.072 427.793 112.02 427.961 112.041C428.13 112.051 428.261 112.109 428.356 112.215C428.461 112.32 428.525 112.452 428.546 112.61C428.567 112.757 428.535 112.91 428.451 113.068C428.377 113.226 428.245 113.363 428.056 113.479C427.687 113.71 427.261 113.884 426.776 114C426.302 114.105 425.86 114.158 425.449 114.158ZM432.843 114.158C431.969 114.158 431.311 113.91 430.868 113.415C430.426 112.91 430.205 112.172 430.205 111.203V103.73C430.205 103.403 430.289 103.156 430.457 102.987C430.626 102.819 430.868 102.735 431.184 102.735C431.5 102.735 431.742 102.819 431.911 102.987C432.09 103.156 432.18 103.403 432.18 103.73V111.109C432.18 111.593 432.28 111.951 432.48 112.183C432.69 112.415 432.985 112.531 433.365 112.531C433.449 112.531 433.528 112.531 433.602 112.531C433.675 112.52 433.749 112.51 433.823 112.499C433.97 112.478 434.07 112.52 434.123 112.625C434.176 112.72 434.202 112.92 434.202 113.226C434.202 113.489 434.149 113.695 434.044 113.842C433.939 113.989 433.765 114.079 433.523 114.111C433.417 114.121 433.307 114.132 433.191 114.142C433.075 114.153 432.959 114.158 432.843 114.158Z" fill="#9B6BFF"/>
<path d="M10.032 98C8.91733 98 8.056 97.7213 7.448 97.164C6.89067 96.556 6.612 95.6947 6.612 94.58V47.84C6.612 46.7253 6.89067 45.8893 7.448 45.332C8.056 44.724 8.91733 44.42 10.032 44.42H38.304C39.1653 44.42 39.824 44.648 40.28 45.104C40.736 45.56 40.964 46.1933 40.964 47.004C40.964 47.8653 40.736 48.524 40.28 48.98C39.824 49.436 39.1653 49.664 38.304 49.664H12.692V68.208H36.708C37.5693 68.208 38.228 68.436 38.684 68.892C39.14 69.2973 39.368 69.9307 39.368 70.792C39.368 71.6533 39.14 72.312 38.684 72.768C38.228 73.224 37.5693 73.452 36.708 73.452H12.692V92.756H38.304C39.1653 92.756 39.824 92.984 40.28 93.44C40.736 93.896 40.964 94.5293 40.964 95.34C40.964 96.2013 40.736 96.86 40.28 97.316C39.824 97.772 39.1653 98 38.304 98H10.032ZM186.937 98.532C186.126 98.532 185.468 98.3547 184.961 98C184.505 97.5947 184.226 97.088 184.125 96.48C184.074 95.8213 184.226 95.0867 184.581 94.276L205.481 46.7C205.937 45.6867 206.469 44.9773 207.077 44.572C207.736 44.116 208.445 43.888 209.205 43.888C209.965 43.888 210.649 44.116 211.257 44.572C211.916 44.9773 212.448 45.6867 212.853 46.7L233.829 94.276C234.234 95.0867 234.386 95.8213 234.285 96.48C234.234 97.1387 233.981 97.6453 233.525 98C233.069 98.3547 232.436 98.532 231.625 98.532C230.713 98.532 229.978 98.304 229.421 97.848C228.864 97.3413 228.408 96.632 228.053 95.72L222.429 82.724L225.469 84.32H192.789L195.905 82.724L190.357 95.72C189.901 96.6827 189.42 97.392 188.913 97.848C188.406 98.304 187.748 98.532 186.937 98.532ZM209.129 51.716L196.893 80.52L195.069 79.076H223.189L221.517 80.52L209.281 51.716H209.129ZM246.408 98.532C245.445 98.532 244.711 98.2787 244.204 97.772C243.697 97.2147 243.444 96.4293 243.444 95.416V47.08C243.444 46.0667 243.697 45.2813 244.204 44.724C244.711 44.1667 245.369 43.888 246.18 43.888C246.991 43.888 247.573 44.04 247.928 44.344C248.333 44.5973 248.789 45.0787 249.296 45.788L282.432 89.944H280.608V46.928C280.608 45.9653 280.861 45.2307 281.368 44.724C281.875 44.1667 282.609 43.888 283.572 43.888C284.484 43.888 285.168 44.1667 285.624 44.724C286.131 45.2307 286.384 45.9653 286.384 46.928V95.492C286.384 96.4547 286.156 97.2147 285.7 97.772C285.295 98.2787 284.687 98.532 283.876 98.532C283.116 98.532 282.508 98.38 282.052 98.076C281.596 97.772 281.115 97.2907 280.608 96.632L247.548 52.476H249.296V95.416C249.296 96.4293 249.043 97.2147 248.536 97.772C248.029 98.2787 247.32 98.532 246.408 98.532ZM320.83 98.684C317.283 98.684 314.167 98.228 311.482 97.316C308.847 96.3533 306.618 94.96 304.794 93.136C302.97 91.2613 301.602 88.956 300.69 86.22C299.778 83.484 299.322 80.3427 299.322 76.796V47.08C299.322 46.016 299.575 45.2307 300.082 44.724C300.639 44.1667 301.425 43.888 302.438 43.888C303.451 43.888 304.211 44.1667 304.718 44.724C305.275 45.2307 305.554 46.016 305.554 47.08V76.492C305.554 82.0653 306.846 86.2453 309.43 89.032C312.014 91.768 315.814 93.136 320.83 93.136C325.846 93.136 329.621 91.768 332.154 89.032C334.687 86.2453 335.954 82.0653 335.954 76.492V47.08C335.954 46.016 336.233 45.2307 336.79 44.724C337.347 44.1667 338.133 43.888 339.146 43.888C340.109 43.888 340.843 44.1667 341.35 44.724C341.907 45.2307 342.186 46.016 342.186 47.08V76.796C342.186 81.508 341.375 85.5107 339.754 88.804C338.183 92.0973 335.802 94.58 332.61 96.252C329.418 97.8733 325.491 98.684 320.83 98.684ZM358.415 98C357.3 98 356.439 97.7213 355.831 97.164C355.273 96.556 354.995 95.6947 354.995 94.58V47.84C354.995 46.7253 355.273 45.8893 355.831 45.332C356.439 44.724 357.3 44.42 358.415 44.42H386.687C387.548 44.42 388.207 44.648 388.663 45.104C389.119 45.56 389.347 46.1933 389.347 47.004C389.347 47.8653 389.119 48.524 388.663 48.98C388.207 49.436 387.548 49.664 386.687 49.664H361.075V68.208H385.091C385.952 68.208 386.611 68.436 387.067 68.892C387.523 69.2973 387.751 69.9307 387.751 70.792C387.751 71.6533 387.523 72.312 387.067 72.768C386.611 73.224 385.952 73.452 385.091 73.452H361.075V92.756H386.687C387.548 92.756 388.207 92.984 388.663 93.44C389.119 93.896 389.347 94.5293 389.347 95.34C389.347 96.2013 389.119 96.86 388.663 97.316C388.207 97.772 387.548 98 386.687 98H358.415ZM402.495 98C401.482 98 400.697 97.7213 400.139 97.164C399.582 96.556 399.303 95.7453 399.303 94.732V47.308C399.303 46.244 399.557 45.4333 400.063 44.876C400.621 44.3187 401.406 44.04 402.419 44.04C403.433 44.04 404.193 44.3187 404.699 44.876C405.257 45.4333 405.535 46.244 405.535 47.308V92.528H430.463C431.375 92.528 432.085 92.7813 432.591 93.288C433.098 93.744 433.351 94.4027 433.351 95.264C433.351 96.1253 433.098 96.8093 432.591 97.316C432.085 97.772 431.375 98 430.463 98H402.495Z" fill="#9B6BFF"/>
<path d="M102.909 97.505H45L54.404 80.6768H72.2222L63.3131 67.8081L94.9899 18.3131L109.838 41.5758L125.182 18.3131L135.576 34.1515L109.838 74.7374L94.9899 51.4747L84.101 67.8081L102.909 97.505Z" fill="url(#paint0_linear_11_55)" fill-opacity="0.52" stroke="#CC0006"/>
<path d="M145.475 98H126.172L115.778 83.1515L126.172 67.8081L145.475 98Z" fill="url(#paint1_linear_11_55)" fill-opacity="0.52" stroke="#CC0006"/>
<path d="M175.667 97.505H155.869L131.121 59.3939L141.02 43.0606L175.667 97.505Z" fill="url(#paint2_linear_11_55)" fill-opacity="0.52" stroke="#CC0006"/>
<path d="M121.217 10.3939C121.217 15.8164 116.388 20.2879 110.333 20.2879C104.279 20.2879 99.4495 15.8164 99.4495 10.3939C99.4495 4.97151 104.279 0.5 110.333 0.5C116.388 0.5 121.217 4.97151 121.217 10.3939Z" fill="url(#paint3_linear_11_55)" fill-opacity="0.52" stroke="#CC0006"/>
<defs>
<linearGradient id="paint0_linear_11_55" x1="63.1838" y1="63.1086" x2="116.706" y2="63.1086" gradientUnits="userSpaceOnUse">
<stop offset="0.229167" stop-color="#9B6BFF"/>
<stop offset="0.71875" stop-color="#C5A3FF"/>
</linearGradient>
<linearGradient id="paint1_linear_11_55" x1="121.74" y1="84.8863" x2="139.288" y2="84.8863" gradientUnits="userSpaceOnUse">
<stop offset="0.229167" stop-color="#9B6BFF"/>
<stop offset="0.71875" stop-color="#C5A3FF"/>
</linearGradient>
<linearGradient id="paint2_linear_11_55" x1="140.064" y1="73.8575" x2="166.386" y2="73.8575" gradientUnits="userSpaceOnUse">
<stop offset="0.229167" stop-color="#9B6BFF"/>
<stop offset="0.71875" stop-color="#C5A3FF"/>
</linearGradient>
<linearGradient id="paint3_linear_11_55" x1="103.52" y1="11.7588" x2="116.974" y2="11.7588" gradientUnits="userSpaceOnUse">
<stop offset="0.229167" stop-color="#9B6BFF"/>
<stop offset="0.71875" stop-color="#C5A3FF"/>
</linearGradient>
</defs>
</svg>
