<svg width="141" height="107" viewBox="0 0 141 107" fill="none" xmlns="http://www.w3.org/2000/svg">
<g filter="url(#filter0_d_18_3)">
<path d="M62.9091 97.5051H5L14.404 80.6768H32.2222L23.3131 67.8081L54.9899 18.3131L69.8384 41.5758L85.1818 18.3131L95.5758 34.1515L69.8384 74.7374L54.9899 51.4748L44.101 67.8081L62.9091 97.5051Z" fill="url(#paint0_linear_18_3)" fill-opacity="0.52" stroke="black"/>
<path d="M105.475 98H86.1717L75.7778 83.1515L86.1717 67.8081L105.475 98Z" fill="url(#paint1_linear_18_3)" fill-opacity="0.52" stroke="black"/>
<path d="M135.667 97.5051H115.869L91.1212 59.3939L101.02 43.0606L135.667 97.5051Z" fill="url(#paint2_linear_18_3)" fill-opacity="0.52" stroke="black"/>
<path d="M81.2172 10.3939C81.2172 15.8164 76.3881 20.2879 70.3333 20.2879C64.2786 20.2879 59.4495 15.8164 59.4495 10.3939C59.4495 4.97151 64.2786 0.5 70.3333 0.5C76.3881 0.5 81.2172 4.97151 81.2172 10.3939Z" fill="url(#paint3_linear_18_3)" fill-opacity="0.52" stroke="black"/>
</g>
<defs>
<filter id="filter0_d_18_3" x="0.147812" y="0" width="140.43" height="106.5" filterUnits="userSpaceOnUse" color-interpolation-filters="sRGB">
<feFlood flood-opacity="0" result="BackgroundImageFix"/>
<feColorMatrix in="SourceAlpha" type="matrix" values="0 0 0 0 0 0 0 0 0 0 0 0 0 0 0 0 0 0 127 0" result="hardAlpha"/>
<feOffset dy="4"/>
<feGaussianBlur stdDeviation="2"/>
<feComposite in2="hardAlpha" operator="out"/>
<feColorMatrix type="matrix" values="0 0 0 0 0 0 0 0 0 0 0 0 0 0 0 0 0 0 0.25 0"/>
<feBlend mode="normal" in2="BackgroundImageFix" result="effect1_dropShadow_18_3"/>
<feBlend mode="normal" in="SourceGraphic" in2="effect1_dropShadow_18_3" result="shape"/>
</filter>
<linearGradient id="paint0_linear_18_3" x1="23.1838" y1="63.1086" x2="76.7058" y2="63.1086" gradientUnits="userSpaceOnUse">
<stop offset="0.229167" stop-color="white"/>
<stop offset="0.71875" stop-color="white"/>
</linearGradient>
<linearGradient id="paint1_linear_18_3" x1="81.7397" y1="84.8863" x2="99.2879" y2="84.8863" gradientUnits="userSpaceOnUse">
<stop offset="0.229167" stop-color="white"/>
<stop offset="0.71875" stop-color="white"/>
</linearGradient>
<linearGradient id="paint2_linear_18_3" x1="100.064" y1="73.8575" x2="126.386" y2="73.8575" gradientUnits="userSpaceOnUse">
<stop offset="0.229167" stop-color="white"/>
<stop offset="0.71875" stop-color="white"/>
</linearGradient>
<linearGradient id="paint3_linear_18_3" x1="63.5203" y1="11.7588" x2="76.9739" y2="11.7588" gradientUnits="userSpaceOnUse">
<stop offset="0.229167" stop-color="white"/>
<stop offset="0.71875" stop-color="white"/>
</linearGradient>
</defs>
</svg>
