<svg width="133" height="99" viewBox="0 0 133 99" fill="none" xmlns="http://www.w3.org/2000/svg">
<path d="M58.9091 97.505H1L10.404 80.6768H28.2222L19.3131 67.8081L50.9899 18.3131L65.8384 41.5758L81.1818 18.3131L91.5758 34.1515L65.8384 74.7374L50.9899 51.4747L40.101 67.8081L58.9091 97.505Z" fill="url(#paint0_linear_11_40)" fill-opacity="0.52" stroke="#CC0006"/>
<path d="M101.475 98H82.1717L71.7778 83.1515L82.1717 67.8081L101.475 98Z" fill="url(#paint1_linear_11_40)" fill-opacity="0.52" stroke="#CC0006"/>
<path d="M131.667 97.5051H111.869L87.1212 59.3939L97.0202 43.0606L131.667 97.5051Z" fill="url(#paint2_linear_11_40)" fill-opacity="0.52" stroke="#CC0006"/>
<path d="M77.2172 10.3939C77.2172 15.8164 72.3881 20.2879 66.3333 20.2879C60.2786 20.2879 55.4495 15.8164 55.4495 10.3939C55.4495 4.97151 60.2786 0.5 66.3333 0.5C72.3881 0.5 77.2172 4.97151 77.2172 10.3939Z" fill="url(#paint3_linear_11_40)" fill-opacity="0.52" stroke="#CC0006"/>
<defs>
<linearGradient id="paint0_linear_11_40" x1="19.1838" y1="63.1086" x2="72.7058" y2="63.1086" gradientUnits="userSpaceOnUse">
<stop offset="0.229167" stop-color="#9B6BFF"/>
<stop offset="0.71875" stop-color="#C5A3FF"/>
</linearGradient>
<linearGradient id="paint1_linear_11_40" x1="77.7397" y1="84.8863" x2="95.2879" y2="84.8863" gradientUnits="userSpaceOnUse">
<stop offset="0.229167" stop-color="#9B6BFF"/>
<stop offset="0.71875" stop-color="#C5A3FF"/>
</linearGradient>
<linearGradient id="paint2_linear_11_40" x1="96.0641" y1="73.8575" x2="122.386" y2="73.8575" gradientUnits="userSpaceOnUse">
<stop offset="0.229167" stop-color="#9B6BFF"/>
<stop offset="0.71875" stop-color="#C5A3FF"/>
</linearGradient>
<linearGradient id="paint3_linear_11_40" x1="59.5203" y1="11.7588" x2="72.9739" y2="11.7588" gradientUnits="userSpaceOnUse">
<stop offset="0.229167" stop-color="#9B6BFF"/>
<stop offset="0.71875" stop-color="#C5A3FF"/>
</linearGradient>
</defs>
</svg>
